<svg id="svg2" xmlns:rdf="http://www.w3.org/1999/02/22-rdf-syntax-ns#" xmlns="http://www.w3.org/2000/svg" height="64" viewBox="0 0 64.000001 64.000001" width="64" version="1.1" xmlns:cc="http://creativecommons.org/ns#" xmlns:dc="http://purl.org/dc/elements/1.1/">
	<circle id="path4223" cy="32.04" cx="32" r="30" style="fill:#eee;fill-rule:evenodd"/>
	<g id="g4225" transform="matrix(.88889 0 0 .88889 3.5553 -873.21)">
		<path id="path4157" style="color-rendering:auto;text-decoration-color:#000000;color:#000000;isolation:auto;mix-blend-mode:normal;fill-rule:evenodd;shape-rendering:auto;solid-color:#000000;block-progression:tb;text-decoration-line:none;image-rendering:auto;white-space:normal;text-indent:0;text-transform:none;text-decoration-style:solid;fill:#f76c6c" d="m18.979 1006.6c-1.4118-0.5877-1.5831 1.6102-0.66945 4.4301 0.44898 1.3858 1.639 3.6203 3.2198 5.2536 3.4769 3.3234 7.3337 6.5578 10.259 9.3826 1.4624 1.4125 2.6918 2.7225 3.5079 3.8201 0.8161 1.0975 1.1349 1.9819 1.1408 2.2726 0.07946 3.8656-1.9779 5.6128-4.8373 5.6751-1.6609 0.037-2.7227-0.5119-3.5281-1.4733-0.8054-0.9612-1.3195-2.4453-1.3205-4.2713 0-0.2882-0.57121-0.5853-1.7247-0.5853s-1.7247 0.2902-1.7247 0.5749c0.0014 2.4644 0.68103 4.771 2.1245 6.4939s3.6857 2.7623 6.2499 2.7061c4.5277-0.099 8.3182-3.8402 8.2082-9.1918-0.03241-1.5771-0.80597-2.8977-1.8191-4.2602-1.0131-1.3626-2.3508-2.7669-3.8807-4.2445-3.0597-2.9551-6.8519-6.1591-10.279-9.4029-1.1237-1.0637-1.9226-1.9354-2.8452-3.4401-1.081-1.7631-1.2691-3.4016-2.0812-3.7396z"/>
		<path id="path4167" style="color-rendering:auto;text-decoration-color:#000000;color:#000000;isolation:auto;mix-blend-mode:normal;fill-rule:evenodd;shape-rendering:auto;solid-color:#000000;block-progression:tb;text-decoration-line:none;image-rendering:auto;white-space:normal;text-indent:0;text-transform:none;text-decoration-style:solid;fill:#374785" d="m45.021 1030.1c1.4118 0.5877 1.5831-1.6102 0.66945-4.4302-0.44898-1.3857-1.639-3.6202-3.2198-5.2535-3.4769-3.3234-7.3337-6.5578-10.259-9.3827-1.4624-1.4124-2.6918-2.7224-3.5079-3.82-0.8161-1.0975-1.1349-1.982-1.1408-2.2726-0.07947-3.8656 1.9779-5.6127 4.8373-5.675 1.6609-0.0368 2.7227 0.51187 3.5281 1.4732 0.8054 0.9612 1.3195 2.4453 1.3205 4.2713 0 0.2882 0.57121 0.5853 1.7247 0.5853s1.7247-0.2902 1.7247-0.5749c-0.0014-2.4644-0.68103-4.771-2.1245-6.4938-1.4435-1.7229-3.6857-2.7623-6.2499-2.7061-4.5277 0.0989-8.3182 3.8402-8.2082 9.1917 0.03241 1.5771 0.80597 2.8977 1.8191 4.2602 1.0131 1.3626 2.3508 2.7668 3.8807 4.2445 3.0597 2.9551 6.8519 6.1591 10.279 9.4029 1.1237 1.0637 1.9226 1.9354 2.8452 3.4401 1.081 1.763 1.2691 3.4015 2.0812 3.7396z"/>
	</g>
</svg>
